<svg xmlns="http://www.w3.org/2000/svg" viewBox="0 0 512 512" xml:space="preserve">
  <path style="fill:#ffd155" d="M256 512C114.842 512 0 397.159 0 256S114.842 0 256 0s256 114.842 256 256-114.841 256-256 256"/>
  <path style="fill:#ffc72d" d="M256 0v512c141.158 0 256-114.842 256-256S397.159 0 256 0"/>
  <path style="fill:#2c3e50" d="M256 436.33c-32.147 0-58.301-28.043-58.301-62.514 0-11.248 9.119-20.368 20.368-20.368s20.368 9.119 20.368 20.368c0 12.009 7.88 21.778 17.566 21.778s17.565-9.77 17.565-21.778c0-11.248 9.119-20.368 20.368-20.368s20.368 9.119 20.368 20.368c-.001 34.471-26.155 62.514-58.302 62.514m152.978-286.146H103.023c-23.55 0-42.709 19.159-42.709 42.709v84.053c0 23.55 19.159 42.709 42.709 42.709h100.859c23.55 0 42.709-19.159 42.709-42.709v-21.659h18.82v21.659c0 23.55 19.159 42.709 42.709 42.709h100.859c23.55 0 42.709-19.159 42.709-42.709v-84.053c-.002-23.55-19.16-42.709-42.71-42.709M246.59 214.551v-21.659c0-.663-.02-1.318-.05-1.974h18.92c-.03.654-.05 1.312-.05 1.974v21.659z"/>
  <path style="fill:#22313f" d="M408.978 150.184H256v40.735h9.46c-.03.654-.05 1.312-.05 1.974v21.659H256v40.735h9.41v21.659c0 23.55 19.159 42.709 42.709 42.709h100.859c23.55 0 42.709-19.159 42.709-42.709v-84.053c-.001-23.55-19.159-42.709-42.709-42.709"/>
  <path style="fill:#238cc5" d="M277.473 306.632c-7.453-8.425-6.664-21.298 1.761-28.75l131.64-116.44c8.425-7.455 21.298-6.664 28.75 1.761s6.664 21.296-1.761 28.75l-131.64 116.44c-8.422 7.451-21.296 6.668-28.75-1.761"/>
  <path style="fill:#51b3da" d="M72.377 306.632c-7.453-8.425-6.664-21.298 1.761-28.75l131.64-116.44c8.424-7.453 21.298-6.664 28.75 1.761s6.664 21.296-1.761 28.75l-131.64 116.44c-8.421 7.451-21.294 6.669-28.75-1.761"/>
  <path style="fill:#22313f" d="M293.934 353.449c-11.248 0-20.368 9.119-20.368 20.368 0 12.009-7.88 21.778-17.565 21.778v40.735c32.147 0 58.3-28.043 58.3-62.514 0-11.247-9.119-20.367-20.367-20.367"/>
</svg>